<svg xmlns="http://www.w3.org/2000/svg" viewBox="0 0 543.66 768"><title>left-path</title><g id="fe6958de-8e76-4404-b3fe-25f7e624c3c3" data-name="Layer 2"><g id="a8382de2-2a79-49f8-9e45-7c2ed497843b" data-name="Layer 1"><path d="M496,0s41,84-49,150c-18.44,13.52-35.32,19.7-51.41,22.05h0c-20.74-2.13-41.16-6-63.14-2.82C293.82,165.3,253.71,167.45,200,232,96,357,0,768,0,768V0Z" style="fill:#a76ae4"/><path d="M395.59,172.05c16.09-2.35,33-8.53,51.41-22.05C537,84,496,0,496,0h38.34s41,84-49,150C451.8,174.59,423.41,174.89,395.59,172.05Z" style="fill:#c7a8fc"/><path d="M332.44,169.23c-27.64,4-57.75,19.09-94.1,62.77-104,125-200,536-200,536H0S96,357,200,232C253.71,167.45,293.82,165.3,332.44,169.23Z" style="fill:#c7a8fc"/></g></g></svg>