<svg xmlns="http://www.w3.org/2000/svg" viewBox="0 0 1366 734"><title>quiz-page-path</title><g id="b621539d-9fe7-4050-833b-b8b4531e7946" data-name="Layer 2"><g id="eb28061e-d097-4b75-9ce1-f1efe15980b2" data-name="Layer 1"><path d="M1366,0V340.35c-104.59,181.07-279.29,316.57-487,369.41q-10.75,2.75-21.62,5.17h0A788.88,788.88,0,0,1,684.5,734a788.92,788.92,0,0,1-172.59-19,780.54,780.54,0,0,1-111.07-33.71A789.23,789.23,0,0,1,0,335.12V0Z" style="fill:#a76ae4;opacity:0.6000000000000001"/><path d="M1366,0c0,295.85-188.53,547.68-452,641.89A680.35,680.35,0,0,1,684.5,681.5,678.91,678.91,0,0,1,395,617.13C163.37,508.28,3,272.87,3,0Z" style="fill:#a76ae4"/></g></g></svg>