<svg xmlns="http://www.w3.org/2000/svg" viewBox="0 0 470 768"><title>right-path</title><g id="e1eb579e-5969-42ad-94d5-37c5f7795f9b" data-name="Layer 2"><g id="b34fff27-c961-40fb-90f4-7e5ae4a1afee" data-name="Layer 1"><path d="M41.2,768S5.76,684,83.56,618C99.5,604.48,114.1,598.3,128,596h0c17.93,2.13,35.58,6,54.58,2.82C216,602.7,250.66,600.55,297.1,536,387,411,470,0,470,0V768Z" style="fill:#a76ae4"/><path d="M128,596c-13.91,2.35-28.51,8.53-44.45,22C5.76,684,41.2,768,41.2,768H8.06s-35.45-84,42.36-150C79.41,593.41,104,593.11,128,596Z" style="fill:#c7a8fc"/><path d="M182.6,598.77c23.9-4,49.93-19.09,81.35-62.77C353.86,411,436.85,0,436.85,0H470S387,411,297.1,536C250.66,600.55,216,602.7,182.6,598.77Z" style="fill:#c7a8fc"/></g></g></svg>